<?xml version="1.0" standalone="no"?>
<!DOCTYPE svg PUBLIC "-//W3C//DTD SVG 20010904//EN"
 "http://www.w3.org/TR/2001/REC-SVG-20010904/DTD/svg10.dtd">
<svg version="1.0" xmlns="http://www.w3.org/2000/svg"
 width="2700.000000pt" height="2200.000000pt" viewBox="0 0 2700.000000 2200.000000"
 preserveAspectRatio="xMidYMid meet">

<g transform="translate(0.000000,2200.000000) scale(0.100000,-0.100000)"
fill="#000000" stroke="none">
<path d="M6530 20359 c0 -5 -4 -7 -10 -4 -7 4 -9 -2365 -7 -7052 l2 -7058
7040 -3 c3872 -1 7050 0 7063 3 l22 5 0 7060 0 7060 -7043 0 -7044 0 -12 -22
-11 -23 6 23 c3 12 3 22 0 22 -3 0 -6 -5 -6 -11z"/>
<path d="M19150 5540 l0 -50 110 0 110 0 0 -310 0 -310 60 0 60 0 0 310 0 310
109 0 c119 0 119 0 117 60 l-1 35 -282 3 -283 2 0 -50z"/>
<path d="M19860 5230 l0 -360 60 0 60 0 0 298 1 297 95 -240 c151 -384 133
-350 179 -350 l40 0 115 295 115 295 3 -298 2 -297 60 0 60 0 0 360 0 360 -92
0 -93 0 -99 -258 c-54 -141 -102 -261 -106 -265 -3 -4 -53 112 -111 258 l-104
265 -92 0 -93 0 0 -360z"/>
<path d="M7437 4820 c-105 -12 -252 -52 -343 -94 -224 -104 -408 -299 -499
-530 -92 -235 -116 -542 -63 -816 26 -138 97 -312 169 -417 79 -114 212 -232
340 -301 290 -156 718 -166 1022 -24 325 152 514 423 574 822 21 140 13 406
-16 535 -86 390 -310 651 -663 771 -144 49 -362 71 -521 54z m254 -490 c254
-47 394 -289 388 -670 -5 -353 -138 -575 -376 -625 -225 -48 -428 29 -528 199
-68 116 -97 253 -95 456 1 363 130 584 370 636 69 15 171 17 241 4z"/>
<path d="M11355 4814 c-331 -24 -556 -122 -749 -324 -79 -84 -98 -110 -78
-110 4 0 90 -47 191 -105 l184 -104 74 69 c129 120 269 174 453 174 121 0 195
-18 257 -63 60 -43 82 -98 85 -208 l3 -90 -155 -22 c-409 -59 -726 -159 -920
-291 -63 -43 -165 -147 -202 -205 -78 -124 -108 -322 -73 -481 51 -234 207
-397 440 -459 73 -20 254 -27 355 -14 159 21 330 77 464 154 43 24 82 42 86
40 4 -3 10 -18 14 -35 3 -17 13 -55 22 -85 l15 -55 255 0 254 0 0 823 c0 782
-1 828 -19 900 -79 308 -347 470 -811 490 -52 2 -117 3 -145 1z m405 -1368 l0
-254 -75 -56 c-85 -64 -212 -128 -300 -151 -83 -21 -209 -19 -260 4 -162 74
-199 317 -71 468 58 69 193 137 361 184 82 22 268 56 318 58 l27 1 0 -254z"/>
<path d="M13893 4805 c-166 -30 -299 -90 -501 -223 -45 -30 -84 -53 -86 -51
-2 2 -15 58 -28 124 -14 66 -29 119 -34 119 -5 -1 -34 -5 -64 -8 -92 -11 -353
-46 -377 -51 l-23 -5 0 -1055 0 -1055 285 0 285 0 0 776 c-1 709 1 778 16 795
57 63 275 183 376 208 69 16 211 14 256 -5 54 -22 99 -70 125 -133 l22 -56 3
-792 3 -793 290 0 289 0 -1 783 c0 430 -5 816 -10 857 -38 305 -179 484 -436
551 -98 26 -289 33 -390 14z"/>
<path d="M15870 4809 c-392 -68 -665 -393 -741 -884 -20 -130 -16 -400 9 -535
47 -254 133 -424 289 -571 93 -86 197 -145 328 -185 82 -25 105 -28 255 -28
155 -1 170 1 243 27 133 46 223 118 298 235 l30 47 -4 -215 c-4 -238 -13 -282
-70 -366 -70 -105 -157 -144 -334 -151 -237 -10 -382 49 -423 171 -11 33 -15
37 -38 32 -15 -4 -128 -22 -252 -41 -308 -48 -283 -41 -276 -79 10 -50 70
-167 111 -216 96 -116 260 -209 450 -257 105 -27 121 -28 345 -28 290 1 414
21 594 97 224 95 363 263 427 513 l23 90 3 1158 4 1157 -243 -2 -243 -3 -21
-110 c-11 -60 -25 -108 -30 -106 -5 3 -21 22 -36 42 -60 83 -185 155 -332 189
-95 23 -288 33 -366 19z m369 -418 c150 -47 249 -149 306 -319 76 -225 49
-614 -56 -798 -34 -59 -109 -134 -165 -162 -98 -49 -282 -56 -376 -14 -65 29
-145 106 -179 174 -58 116 -71 184 -76 412 -7 295 19 429 110 558 99 142 270
201 436 149z"/>
<path d="M18350 4810 c-381 -38 -662 -260 -793 -627 -52 -143 -71 -278 -71
-493 -1 -219 15 -330 66 -485 37 -110 55 -147 124 -251 162 -245 423 -377 774
-391 356 -14 646 77 852 266 58 53 158 177 158 196 -1 8 -375 221 -408 233 -5
1 -31 -27 -60 -62 -58 -73 -152 -145 -229 -175 -101 -40 -264 -46 -373 -15
-220 64 -332 244 -343 552 l-2 42 724 0 724 0 -6 173 c-8 258 -55 443 -153
611 -53 91 -165 213 -248 269 -192 130 -450 186 -736 157z m312 -408 c153 -55
241 -179 263 -369 l7 -63 -440 0 -441 0 6 38 c32 225 140 363 318 409 72 18
217 11 287 -15z"/>
<path d="M10002 4784 c-136 -40 -276 -121 -362 -208 -24 -25 -47 -46 -50 -46
-3 0 -4 54 -3 120 l2 120 -274 0 -275 0 0 -1085 0 -1085 290 0 290 0 0 720 0
720 24 39 c72 114 236 177 494 188 l122 6 0 268 0 269 -87 -1 c-63 0 -112 -7
-171 -25z"/>
</g>
</svg>
