<?xml version="1.0" standalone="no"?>
<!DOCTYPE svg PUBLIC "-//W3C//DTD SVG 20010904//EN"
 "http://www.w3.org/TR/2001/REC-SVG-20010904/DTD/svg10.dtd">
<svg version="1.0" xmlns="http://www.w3.org/2000/svg"
 width="3840.000000pt" height="2160.000000pt" viewBox="0 0 3840.000000 2160.000000"
 preserveAspectRatio="xMidYMid meet">

<g transform="translate(0.000000,2160.000000) scale(0.100000,-0.100000)"
fill="#ff6600" stroke="none">
<path d="M8580 10800 l0 -10620 10620 0 10620 0 0 10620 0 10620 -10620 0
-10620 0 0 -10620z m19170 -4810 l0 -70 -155 0 -155 0 0 -423 0 -423 -82 1
-83 0 -3 423 -2 422 -150 0 -150 0 0 70 0 70 390 0 390 0 0 -70z m487 -38
c170 -433 246 -622 250 -619 2 3 66 166 142 363 l139 359 126 3 126 3 -2 -493
-3 -493 -80 0 -80 0 -5 396 -5 397 -144 -372 c-80 -204 -150 -383 -157 -397
-12 -24 -18 -27 -65 -25 l-51 1 -157 399 -156 399 -3 -394 c-1 -262 -6 -395
-13 -399 -6 -4 -43 -7 -82 -6 l-72 1 -3 493 -2 492 127 0 128 0 42 -108z
m-16710 -971 c273 -56 501 -172 684 -348 140 -135 238 -277 312 -453 193 -459
176 -1113 -40 -1544 -70 -139 -137 -231 -247 -341 -198 -197 -418 -313 -711
-375 -145 -31 -412 -38 -565 -16 -337 50 -602 176 -814 390 -98 98 -167 192
-231 317 -141 275 -192 527 -182 908 7 272 42 454 126 655 178 427 526 708
998 807 192 40 472 40 670 0z m3301 13 l22 -6 -2 -365 -3 -365 -120 -4 c-374
-13 -617 -102 -718 -264 l-22 -35 -5 -990 -5 -990 -389 -3 c-229 -1 -392 2
-395 7 -5 7 -7 2926 -2 2954 0 4 168 7 371 7 l370 0 0 -172 0 -172 58 59 c163
166 425 302 647 335 64 10 164 11 193 4z m1972 -19 c429 -72 698 -251 817
-545 54 -134 53 -106 53 -1328 l0 -1132 -347 2 -346 3 -24 90 c-13 50 -28 107
-34 127 l-9 37 -68 -41 c-160 -98 -371 -179 -568 -218 -136 -28 -387 -38 -503
-21 -397 58 -664 335 -711 736 -49 416 146 740 576 953 262 131 641 233 1079
292 88 12 169 23 180 25 19 4 20 11 18 107 -3 165 -19 215 -92 281 -86 77
-192 109 -371 109 -261 0 -476 -88 -651 -265 -57 -57 -74 -69 -87 -61 -10 6
-126 72 -259 148 -134 76 -243 142 -243 147 0 12 98 128 160 188 129 126 328
244 514 305 96 32 244 63 357 75 123 13 447 5 559 -14z m3530 -8 c173 -45 282
-107 385 -219 78 -84 120 -157 161 -277 64 -186 64 -179 64 -1393 l0 -1098
-390 0 -389 0 -3 1053 -4 1052 -22 80 c-31 112 -80 181 -156 220 -59 29 -62
30 -205 29 -130 0 -155 -3 -226 -27 -137 -46 -311 -144 -437 -250 l-48 -39 0
-1059 0 -1059 -390 0 -390 0 0 1438 0 1439 273 37 c149 21 296 41 325 45 37 6
55 5 57 -3 2 -6 18 -84 36 -173 17 -89 35 -161 38 -159 3 3 70 47 148 99 162
108 325 191 463 236 158 51 233 61 435 57 152 -3 195 -8 275 -29z m2568 17
c263 -39 472 -150 578 -308 22 -32 35 -45 38 -35 5 14 56 291 56 303 0 3 150
5 333 4 l332 -3 -1 -1500 c0 -1111 -4 -1527 -13 -1605 -32 -283 -119 -485
-276 -645 -125 -127 -257 -207 -450 -270 -338 -111 -851 -130 -1185 -45 -330
85 -571 258 -690 495 -37 75 -69 179 -59 190 4 4 738 125 758 125 4 0 15 -24
24 -53 46 -146 190 -218 467 -233 386 -21 592 122 650 451 8 51 15 346 11 503
l-1 44 -51 -76 c-61 -92 -158 -189 -233 -235 -299 -181 -818 -147 -1156 74
-94 62 -242 208 -302 300 -174 266 -258 591 -258 999 0 648 258 1173 690 1409
207 114 462 152 738 111z m3524 -13 c256 -55 459 -161 623 -326 262 -262 395
-649 395 -1150 l0 -155 -985 0 -985 0 0 -56 c0 -151 49 -357 113 -479 42 -78
146 -182 224 -223 123 -65 304 -93 464 -72 177 23 291 80 419 209 47 47 99
103 115 124 l30 38 283 -158 c198 -110 281 -161 277 -171 -14 -36 -85 -131
-153 -203 -280 -298 -706 -446 -1222 -426 -713 28 -1164 428 -1291 1147 -27
148 -36 462 -20 621 25 240 81 449 163 613 191 383 505 610 944 681 133 22
477 14 606 -14z"/>
<path d="M11058 4340 c-233 -40 -397 -184 -480 -425 -44 -128 -58 -214 -65
-395 -21 -573 173 -901 567 -961 162 -25 357 12 476 89 212 138 317 403 317
802 1 514 -177 814 -525 884 -81 17 -210 19 -290 6z"/>
<path d="M16795 3469 c-368 -56 -629 -140 -781 -252 -72 -53 -115 -105 -152
-184 -25 -53 -27 -68 -27 -178 0 -109 2 -125 26 -176 35 -73 85 -128 151 -164
46 -26 65 -30 154 -33 213 -8 439 76 650 242 l74 58 0 349 c0 326 -1 349 -17
348 -10 -1 -45 -5 -78 -10z"/>
<path d="M22697 4425 c-125 -34 -245 -129 -316 -248 -40 -68 -83 -191 -108
-307 -23 -108 -26 -514 -4 -655 50 -330 185 -522 406 -580 69 -18 240 -20 317
-4 138 29 272 126 347 253 145 244 187 777 87 1091 -75 233 -240 403 -438 450
-77 18 -226 18 -291 0z"/>
<path d="M25960 4463 c-166 -28 -318 -140 -394 -290 -35 -71 -69 -184 -81
-275 l-6 -48 595 0 596 0 0 44 c0 83 -29 199 -70 282 -95 193 -278 296 -519
293 -53 -1 -107 -4 -121 -6z"/>
</g>
</svg>
